# xmcd
#
# Track frame offsets:
#	150
#	11105
#	23244
#	37760
#	49410
#	61555
#	72929
#	82299
#	92929
#	104534
#	117354
#	127192
#	139487
#	149982
#	163822
#	175225
#	186163
#	198574
#	207547
#	223225
#	233420
#	246270
#
# Disc length: 3423 seconds
#
# Revision: 0
# Processed by: cddbd v1.5.2PL0 Copyright (c) Steve Scherf et al.
# Submitted via: EasyCDDAExtractor 16.0.1.1
#
DISCID=600d5d16
DTITLE=Charlie Louvin - Hey Daddy and The Kind Of Man I Am
DYEAR=1969
DGENRE=Country
TTITLE0=Hey Daddy
TTITLE1=Even The Loser Likes To Dream
TTITLE2=Sounds Of Goodbye
TTITLE3=What Then
TTITLE4=Heart Of Clay
TTITLE5=Are You Teasing Me
TTITLE6=Love Takes Care of Me
TTITLE7=It's Not A Big Thing (But It's Growing)
TTITLE8=Next Time You're In Tulsa
TTITLE9=The Edge Of Your Memory
TTITLE10=Born To Love You
TTITLE11=The Kind Of Man I Am
TTITLE12=She Called Me Baby
TTITLE13=Yesterday's Letters
TTITLE14=After Awhile
TTITLE15=Until my Dreams Come True
TTITLE16=Won't You Come Home And Talk To A Stranger
TTITLE17=Let's Put Our World Back Together
TTITLE18=Hungry Eyes
TTITLE19=What Are Those Things (With Black Wings)
TTITLE20=Life To Go
TTITLE21=A Million Years Or So
EXTD=
EXTT0=
EXTT1=
EXTT2=
EXTT3=
EXTT4=
EXTT5=
EXTT6=
EXTT7=
EXTT8=
EXTT9=
EXTT10=
EXTT11=
EXTT12=
EXTT13=
EXTT14=
EXTT15=
EXTT16=
EXTT17=
EXTT18=
EXTT19=
EXTT20=
EXTT21=
PLAYORDER=
